<?xml version="1.0" encoding="UTF-8"?>
<!DOCTYPE svg PUBLIC "-//W3C//DTD SVG 1.1//EN" "http://www.w3.org/Graphics/SVG/1.1/DTD/svg11.dtd">
<!-- Creator: CorelDRAW -->
<svg xmlns="http://www.w3.org/2000/svg" xml:space="preserve" width="502px" height="57px" style="shape-rendering:geometricPrecision; text-rendering:geometricPrecision; image-rendering:optimizeQuality; fill-rule:evenodd; clip-rule:evenodd"
viewBox="0 0 451.447 51.293"
 xmlns:xlink="http://www.w3.org/1999/xlink">
 <defs>
  <style type="text/css">
   <![CDATA[
    .fil0 {fill:red;fill-rule:nonzero}
   ]]>
  </style>
 </defs>
 <g id="Слой_x0020_1">
  <metadata id="CorelCorpID_0Corel-Layer"/>
  <path class="fil0" d="M6.37169 19.5137l4.38067 -1.11519 3.42475 -0.876134 1.43373 -0.398024 0.955919 -0.239055 0.557594 -0.15927 0.398024 -0.0797854 0.876134 -0.238754 0.239055 -0.0797854 0.318539 -0.0794843 0.318539 -0.0797854 0.15927 0 0.15927 -0.0794843 0.239055 -0.0797854 0.318539 0 0.477809 -0.15927 0.239055 -0.0797854 0.318539 -0.0794843 0.63738 -0.15927 2.23008 -0.557594c1.64599,0.637079 2.84066,1.53971 3.58402,2.70789 0.849639,1.0622 1.27446,2.44264 1.27446,4.14192 0,1.69898 -0.5311,3.49099 -1.593,5.37603 -1.0619,1.88504 -2.6284,3.62406 -4.69921,5.21706 -2.07081,1.593 -4.73895,2.86716 -8.00473,3.82307 -3.26548,0.955618 -6.80976,1.43343 -10.6328,1.43343 3.77009,-0.637079 7.03557,-1.67248 9.79674,-3.10621 2.76118,-1.43343 4.88497,-3.03967 6.37169,-4.81844 1.48672,-1.77906 2.23008,-3.49129 2.23008,-5.13728 0,-1.16818 -0.358282,-2.16384 -1.07515,-2.98698 -0.716864,-0.822843 -1.79201,-1.49997 -3.22574,-2.03106 -1.53971,-0.477809 -3.31877,-0.716563 -5.33629,-0.716563 -2.01782,0 -4.14161,0.212259 -6.37199,0.637079zm2.07081 17.7614c-1.0619,-1.75227 -1.79201,-3.47804 -2.19003,-5.17702 -0.398325,-1.69928 -0.716864,-3.11976 -0.955919,-4.26114 -0.239055,-1.14168 -0.358282,-2.21713 -0.358282,-3.22574 0,-0.79665 -0.0532906,-1.8718 -0.15927,-3.22574 -0.10628,-1.35424 -0.159571,-2.3496 -0.159571,-2.98698l0 -0.477809 0.0797854 -1.43373 0 -0.398024 0 -0.47811 0 -0.318539c0,-1.64599 0.185764,-3.02643 0.557594,-4.14161 0.371529,-1.11519 0.716864,-2.15059 1.0354,-3.10621 0.318539,-0.955919 0.716864,-2.01782 1.19467,-3.186 2.17709,0.42482 3.9426,0.79665 5.29655,1.11519 1.35394,0.318539 2.42939,0.557594 3.22574,0.716864 -1.22117,2.6549 -2.64165,6.90279 -4.26114,12.7434 -1.61949,5.84089 -2.42939,11.31 -2.42939,16.4075l0 1.27446c-0.371529,0.105979 -0.663574,0.15927 -0.876134,0.15927zm17.6819 -30.1068l-1.91154 -0.318539 -3.82307 -0.239055c-4.88497,0 -10.3543,0.902629 -16.4075,2.70819 1.43373,-1.43373 3.71679,-3.00023 6.8498,-4.69921 3.13271,-1.69928 6.11939,-2.89395 8.96035,-3.58432 2.84066,-0.690369 5.85414,-1.0354 9.03983,-1.0354l-2.70789 7.16834z"/>
  <path id="1" class="fil0" d="M48.3954 18.4783c1.11519,-1.5665 1.67278,-3.42475 1.67278,-5.57534 0,-1.77876 -0.47811,-3.23899 -1.43373,-4.36742 -0.955919,-1.12814 -2.36285,-1.68573 -4.2214,-1.68573l-0.477809 0 -1.19467 0 2.38935 -1.11519c1.16818,-0.42482 2.46913,-0.637079 3.90286,-0.637079 3.92905,0 6.45148,1.27416 7.56636,3.82307 1.11519,2.54862 1.67278,4.27439 1.67278,5.17702 0,2.28337 -1.35424,4.53994 -4.06213,6.77002 -2.70789,2.23008 -7.51337,3.98234 -14.4162,5.2568l0 -0.477809 2.07081 -1.11519c0.212259,-0.15927 0.650326,-0.464562 1.3142,-0.915876 0.663574,-0.451314 1.3142,-0.969167 1.95128,-1.55326 0.690369,-0.477809 1.24796,-0.955618 1.67278,-1.43373 0.424518,-0.477809 0.955618,-1.19467 1.5927,-2.15029zm-8.84082 -1.43373c0,2.60191 0.438067,4.84523 1.3142,6.73027 0.876134,1.88504 2.42939,3.59727 4.65947,5.13728 2.23008,1.53971 5.09753,2.30986 8.60177,2.30986l2.38965 -0.0797854 1.43343 -0.239055 -7.56636 7.80572c-5.62833,-1.16818 -9.86298,-3.23929 -12.7039,-6.21272 -2.84066,-2.97344 -4.26114,-5.76111 -4.26114,-8.36301 0,-5.20351 1.08869,-9.35837 3.26578,-12.4649 2.17709,-3.10621 4.35387,-5.16377 6.53096,-6.17268 2.07081,-1.0619 3.6903,-1.69898 4.85848,-1.91154 -5.68132,3.77009 -8.52228,8.25703 -8.52228,13.4605z"/>
  <path id="12" class="fil0" d="M75.1268 48.5851l-9.00009 2.70789c-2.44264,-6.8495 -3.66381,-13.9119 -3.66381,-21.1862 0,-5.94717 0.610584,-11.1374 1.83175,-15.5711 1.22147,-4.43366 2.25687,-7.57991 3.10651,-9.43816l0 2.23008c0,3.45124 0.0794843,6.5975 0.238754,9.43816 0.15927,2.84096 0.42482,5.57534 0.79665,8.20374 0.371529,2.6284 0.756606,5.0045 1.15463,7.1286 0.398325,2.1238 0.862886,4.11512 1.39399,5.97337 0.5311,1.85855 0.982414,3.29228 1.35394,4.30088 0.37183,1.00891 0.769854,2.04431 1.19467,3.10651l1.593 3.10621zm2.23008 -31.6998c-0.955618,-0.955919 -2.1238,-1.43373 -3.50454,-1.43373 -2.01752,0 -3.76978,0.597337 -5.2565,1.79201 -1.48672,1.19497 -2.50887,2.04431 -3.06647,2.54892 -0.557594,0.504304 -1.12844,1.07515 -1.71253,1.71222l10.4338 -14.3364c2.81417,0.371529 4.92502,1.18143 6.33195,2.42909 1.40723,1.24796 2.45588,2.3764 3.14625,3.38501 0.690068,1.00891 1.35394,2.40289 1.99102,4.18166 0.63738,1.77876 0.955919,3.65056 0.955919,5.61508 0,1.54001 -0.15927,2.70819 -0.47811,3.50454 -0.955618,3.02673 -2.25657,5.36278 -3.90256,7.00907 -1.48672,1.64599 -3.186,2.80092 -5.09753,3.46449 -1.91154,0.663875 -3.76978,0.995661 -5.57534,0.995661l-2.86716 -0.239055 -1.593 -0.318539c4.61942,0 8.01768,-1.16818 10.1948,-3.50454 2.1241,-2.07081 3.186,-4.64592 3.186,-7.72563 0,-1.85855 -0.318539,-3.62406 -0.955919,-5.29655 -0.637079,-1.67278 -1.38044,-2.93369 -2.23008,-3.78333z"/>
  <path id="123" class="fil0" d="M105.841 18.4783c1.11519,-1.5665 1.67278,-3.42475 1.67278,-5.57534 0,-1.77876 -0.47811,-3.23899 -1.43373,-4.36742 -0.955919,-1.12814 -2.36285,-1.68573 -4.2214,-1.68573l-0.477809 0 -1.19467 0 2.38935 -1.11519c1.16818,-0.42482 2.46913,-0.637079 3.90286,-0.637079 3.92905,0 6.45148,1.27416 7.56636,3.82307 1.11519,2.54862 1.67278,4.27439 1.67278,5.17702 0,2.28337 -1.35424,4.53994 -4.06213,6.77002 -2.70789,2.23008 -7.51337,3.98234 -14.4162,5.2568l0 -0.477809 2.07081 -1.11519c0.212259,-0.15927 0.650326,-0.464562 1.3142,-0.915876 0.663574,-0.451314 1.3142,-0.969167 1.95128,-1.55326 0.690369,-0.477809 1.24796,-0.955618 1.67278,-1.43373 0.424518,-0.477809 0.955618,-1.19467 1.5927,-2.15029zm-8.84082 -1.43373c0,2.60191 0.438067,4.84523 1.3142,6.73027 0.876134,1.88504 2.42939,3.59727 4.65947,5.13728 2.23008,1.53971 5.09753,2.30986 8.60177,2.30986l2.38965 -0.0797854 1.43343 -0.239055 -7.56636 7.80572c-5.62833,-1.16818 -9.86298,-3.23929 -12.7039,-6.21272 -2.84066,-2.97344 -4.26114,-5.76111 -4.26114,-8.36301 0,-5.20351 1.08869,-9.35837 3.26578,-12.4649 2.17709,-3.10621 4.35387,-5.16377 6.53096,-6.17268 2.07081,-1.0619 3.6903,-1.69898 4.85848,-1.91154 -5.68132,3.77009 -8.52228,8.25703 -8.52228,13.4605z"/>
  <path id="1234" class="fil0" d="M131.776 12.903c5.15052,1.22117 8.64151,2.99993 10.4736,5.33629 1.83175,2.33636 2.74793,4.64622 2.74793,6.92929l-0.0797854 1.0354 -0.0794843 0.557594c-0.690369,2.33636 -1.77906,4.27439 -3.26578,5.8144 -1.48672,1.53971 -2.86716,2.60161 -4.14161,3.18569 -1.16818,0.63738 -2.07081,1.0354 -2.70789,1.19497 0.690068,-0.79665 1.65923,-2.13735 2.9072,-4.02239 1.24766,-1.88504 1.87149,-3.83632 1.87149,-5.85414 0,-1.32745 -0.345034,-2.49563 -1.0354,-3.50423 -0.584089,-1.00891 -1.49997,-1.81881 -2.74763,-2.42939 -1.24796,-0.610584 -2.42939,-1.07515 -3.54458,-1.39369 -1.11489,-0.31884 -2.33606,-0.584089 -3.66381,-0.79665l3.26578 -6.05315zm4.38037 4.77869l-0.477809 -5.73461c2.86746,-1.16818 4.30118,-2.60161 4.30118,-4.30088 0,-0.318539 -0.0797854,-0.743359 -0.239055,-1.27446l-0.398325 -0.637079c0.5311,0.26555 1.24796,0.769854 2.15059,1.51321 0.902629,0.743359 1.35394,1.75227 1.35394,3.02673 0,2.33636 -2.23008,4.80549 -6.69053,7.40709zm-16.1684 14.6552l4.53994 -6.29221c0.79665,3.39826 2.27012,5.96042 4.42041,7.68619 2.15059,1.72547 3.91611,2.82741 5.29655,3.30522l-1.19467 0.557594c-0.530799,0.15927 -1.27416,0.239055 -2.23008,0.239055 -3.39826,0 -7.00907,-1.83205 -10.8321,-5.49586zm2.70819 -27.4784c4.03533,-3.13271 7.59316,-4.69921 10.6729,-4.69921 2.1238,0 3.74329,0.570842 4.85848,1.71253 1.11489,1.14168 1.80526,2.08405 2.07081,2.82741l-1.0354 -0.557594c-0.584089,-0.212259 -1.30095,-0.318539 -2.15059,-0.318539 -3.71679,0 -7.8852,2.52212 -12.5046,7.56667l-1.91154 -6.53126z"/>
  <path id="12345" class="fil0" d="M173.481 18.3985c-1.43373,-2.6549 -3.23899,-4.38067 -5.41607,-5.17702 -1.91154,-0.849639 -3.6903,-1.27446 -5.33629,-1.27446l5.57534 -8.12396c4.35387,2.1241 7.46008,4.64622 9.31863,7.53987 1.85855,2.9072 2.78767,5.7879 2.78767,8.66831l-0.239055 2.6284c-0.584089,3.4118 -1.71222,6.19917 -3.38501,8.38951 -1.67248,2.17709 -3.27873,3.77009 -4.81844,4.77899 -1.54001,1.02216 -2.76118,1.71253 -3.66381,2.08405 4.35387,-5.52205 6.53096,-10.301 6.53096,-14.3364 0,-1.80556 -0.451314,-3.53133 -1.35394,-5.17732zm-11.31 7.00907c1.53971,1.80526 3.34527,2.98668 5.41607,3.54428 2.07081,0.557594 3.6903,0.836392 4.85848,0.836392l-5.57534 8.12396c-4.35417,-0.902629 -7.46038,-2.92045 -9.31893,-6.02666 -1.85825,-3.11946 -2.78767,-6.47797 -2.78767,-10.102l0.239055 -2.72113c0.5311,-3.29228 1.67248,-6.0664 3.42475,-8.29678 1.75227,-2.23008 3.4118,-3.88931 4.97801,-4.95121 1.5665,-1.0622 2.72143,-1.72577 3.46479,-1.99132 -4.77899,5.04424 -7.16834,9.90272 -7.16834,14.5754 0,2.81417 0.823144,5.15052 2.46913,7.00907z"/>
  <path id="123456" class="fil0" d="M204.115 36.5583c-2.23008,1.16818 -4.56643,1.75227 -7.00907,1.75227l-2.6284 -0.15927 -1.19467 -0.239055 -0.477809 -0.15927c0.530799,0 1.16818,-0.0662369 1.91154,-0.199012 0.743359,-0.132775 1.8718,-0.332088 3.38501,-0.597337 1.51321,-0.26555 3.27873,-1.00891 5.29655,-2.23038 2.01782,-1.22117 3.02643,-2.86716 3.02643,-4.93796 0,-1.43373 -0.504304,-2.94694 -1.51321,-4.53994 -0.42482,-0.42482 -1.39369,-0.995661 -2.9072,-1.71253 -1.51321,-0.716864 -3.35821,-1.07515 -5.5353,-1.07515 -3.45155,0 -6.95608,1.11519 -10.5136,3.34527l12.0268 -9.79674c3.07972,0.37183 5.52235,1.14168 7.32761,2.30986 1.75227,1.27416 2.93369,2.70789 3.54428,4.30088 0.610584,1.593 0.915876,3.10621 0.915876,4.53994l-0.15927 1.91154 0 0.477809 0 0.15927 -0.0794843 0.15927 0 0.0797854 -0.0797854 0.15927 0 0.0797854c-1.22117,3.02643 -2.99993,5.15052 -5.33629,6.37169zm-7.80542 -34.0096c5.84059,1.80556 8.76104,4.80549 8.76104,9.00039 0,1.75227 -0.384776,3.37176 -1.15493,4.85848 -0.769854,1.48672 -1.36719,2.52212 -1.79201,3.10621l-1.51321 -0.398325 0.15927 -0.238754 0.0794843 -0.31884 0.398325 -1.19467c0.21256,-0.849639 0.318539,-1.75227 0.318539,-2.70789 0,-2.17709 -0.384776,-3.51778 -1.15463,-4.02239 -0.770155,-0.504304 -1.3142,-0.809596 -1.63304,-0.915876 -0.318539,-0.10628 -0.690068,-0.278797 -1.11489,-0.517551 -0.42482,-0.239055 -1.22117,-0.358583 -2.38935,-0.358583 -2.38965,0 -4.88527,1.0619 -7.48688,3.186l-0.0797854 -1.43373 8.60207 -8.04447zm-8.68155 37.1956c-1.85855,-6.21272 -2.78767,-12.0533 -2.78767,-17.5227 0,-5.73461 0.730112,-10.2746 2.19003,-13.6195 1.46022,-3.34527 2.61515,-5.52235 3.46479,-6.53126 -0.26555,0.902629 -0.597337,2.29661 -0.995661,4.18166 -0.398024,1.88474 -0.597337,4.26114 -0.597337,7.1283 0,3.39826 0.464562,6.90279 1.39399,10.5136 0.929123,3.61051 2.48238,7.14154 4.65917,10.5931l-7.32731 5.2568z"/>
  <path id="1234567" class="fil0" d="M215.872 19.5137l4.38067 -1.11519 3.42475 -0.876134 1.43373 -0.398024 0.955919 -0.239055 0.557594 -0.15927 0.398024 -0.0797854 0.876134 -0.238754 0.239055 -0.0797854 0.318539 -0.0794843 0.318539 -0.0797854 0.15927 0 0.15927 -0.0794843 0.239055 -0.0797854 0.318539 0 0.477809 -0.15927 0.239055 -0.0797854 0.318539 -0.0794843 0.63738 -0.15927 2.23008 -0.557594c1.64599,0.637079 2.84066,1.53971 3.58402,2.70789 0.849639,1.0622 1.27446,2.44264 1.27446,4.14192 0,1.69898 -0.5311,3.49099 -1.593,5.37603 -1.0619,1.88504 -2.6284,3.62406 -4.69921,5.21706 -2.07081,1.593 -4.73895,2.86716 -8.00473,3.82307 -3.26548,0.955618 -6.80976,1.43343 -10.6328,1.43343 3.77009,-0.637079 7.03557,-1.67248 9.79674,-3.10621 2.76118,-1.43343 4.88497,-3.03967 6.37169,-4.81844 1.48672,-1.77906 2.23008,-3.49129 2.23008,-5.13728 0,-1.16818 -0.358282,-2.16384 -1.07515,-2.98698 -0.716864,-0.822843 -1.79201,-1.49997 -3.22574,-2.03106 -1.53971,-0.477809 -3.31877,-0.716563 -5.33629,-0.716563 -2.01782,0 -4.14161,0.212259 -6.37199,0.637079zm2.07081 17.7614c-1.0619,-1.75227 -1.79201,-3.47804 -2.19003,-5.17702 -0.398325,-1.69928 -0.716864,-3.11976 -0.955919,-4.26114 -0.239055,-1.14168 -0.358282,-2.21713 -0.358282,-3.22574 0,-0.79665 -0.0532906,-1.8718 -0.15927,-3.22574 -0.10628,-1.35424 -0.159571,-2.3496 -0.159571,-2.98698l0 -0.477809 0.0797854 -1.43373 0 -0.398024 0 -0.47811 0 -0.318539c0,-1.64599 0.185764,-3.02643 0.557594,-4.14161 0.371529,-1.11519 0.716864,-2.15059 1.0354,-3.10621 0.318539,-0.955919 0.716864,-2.01782 1.19467,-3.186 2.17709,0.42482 3.9426,0.79665 5.29655,1.11519 1.35394,0.318539 2.42939,0.557594 3.22574,0.716864 -1.22117,2.6549 -2.64165,6.90279 -4.26114,12.7434 -1.61949,5.84089 -2.42939,11.31 -2.42939,16.4075l0 1.27446c-0.371529,0.105979 -0.663574,0.15927 -0.876134,0.15927zm21.7438 -30.1866l8.04447 -2.30956c0.902629,3.34496 1.35394,6.82301 1.35394,10.4338 0,5.84059 -0.849338,10.6858 -2.54862,14.5357 -1.69928,3.84957 -3.10621,6.51771 -4.2214,8.00443l0.239055 -8.28323c0,-7.06206 -0.345034,-12.2791 -1.0354,-15.6509 -0.690369,-3.37176 -1.30095,-5.61508 -1.83205,-6.73027z"/>
  <path id="12345678" class="fil0" d="M268.807 18.4783c1.11519,-1.5665 1.67278,-3.42475 1.67278,-5.57534 0,-1.77876 -0.47811,-3.23899 -1.43373,-4.36742 -0.955919,-1.12814 -2.36285,-1.68573 -4.2214,-1.68573l-0.477809 0 -1.19467 0 2.38935 -1.11519c1.16818,-0.42482 2.46913,-0.637079 3.90286,-0.637079 3.92905,0 6.45148,1.27416 7.56636,3.82307 1.11519,2.54862 1.67278,4.27439 1.67278,5.17702 0,2.28337 -1.35424,4.53994 -4.06213,6.77002 -2.70789,2.23008 -7.51337,3.98234 -14.4162,5.2568l0 -0.477809 2.07081 -1.11519c0.212259,-0.15927 0.650326,-0.464562 1.3142,-0.915876 0.663574,-0.451314 1.3142,-0.969167 1.95128,-1.55326 0.690369,-0.477809 1.24796,-0.955618 1.67278,-1.43373 0.424518,-0.477809 0.955618,-1.19467 1.5927,-2.15029zm-8.84082 -1.43373c0,2.60191 0.438067,4.84523 1.3142,6.73027 0.876134,1.88504 2.42939,3.59727 4.65947,5.13728 2.23008,1.53971 5.09753,2.30986 8.60177,2.30986l2.38965 -0.0797854 1.43343 -0.239055 -7.56636 7.80572c-5.62833,-1.16818 -9.86298,-3.23929 -12.7039,-6.21272 -2.84066,-2.97344 -4.26114,-5.76111 -4.26114,-8.36301 0,-5.20351 1.08869,-9.35837 3.26578,-12.4649 2.17709,-3.10621 4.35387,-5.16377 6.53096,-6.17268 2.07081,-1.0619 3.6903,-1.69898 4.85848,-1.91154 -5.68132,3.77009 -8.52228,8.25703 -8.52228,13.4605z"/>
  <path id="123456789" class="fil0" d="M307.008 40.9389c-0.477809,-2.38965 -0.716864,-4.85848 -0.716864,-7.4074 0,-5.57534 1.15493,-10.0487 3.46479,-13.4205 2.30956,-3.37176 4.83198,-5.69487 7.56636,-6.96903 2.73468,-1.27446 4.89822,-1.91154 6.49122,-1.91154 -0.15927,0.15927 -0.358282,0.358282 -0.597337,0.597337 -0.238754,0.238754 -0.769854,0.676821 -1.593,1.3142 -0.822843,0.637079 -1.83175,1.65923 -3.02643,3.06617 -1.19467,1.40723 -2.25687,3.29228 -3.186,5.65513 -0.929123,2.36285 -1.39369,5.27005 -1.39369,8.7213 0,2.92045 0.371529,5.94717 1.11489,9.07988l-8.12396 1.27446zm16.487 -33.1335c0.318539,2.17709 0.783101,4.61972 1.39399,7.32761 0.610584,2.70819 1.55295,6.25246 2.82741,10.6328 1.27446,4.38067 3.07972,8.48254 5.41607,12.3056l-4.2214 1.51321 -4.38067 1.43373c-0.955618,-1.38044 -1.69898,-3.75654 -2.23008,-7.1283 -0.5311,-3.37176 -0.796348,-7.20808 -0.796348,-11.5093 0,-6.8495 0.663574,-11.708 1.99102,-14.5754zm13.142 26.9208l-4.06213 8.36301c-6.05315,-2.01752 -11.7083,-3.02643 -16.9648,-3.02643 -2.86746,0 -5.33659,0.238754 -7.4074,0.716864l-3.74329 1.27416c2.54862,-2.07081 5.38928,-3.66381 8.52228,-4.77869 3.13271,-1.11519 6.18593,-1.85855 9.15936,-2.23008 2.97344,-0.37183 5.92038,-0.557594 8.84082,-0.557594l3.74359 0.0794843 0.796348 0.0797854 0.637079 0.0794843 0.47811 0z"/>
  <path id="12345678910" class="fil0" d="M352.218 48.5851l-9.00009 2.70789c-2.44264,-6.8495 -3.66381,-13.9119 -3.66381,-21.1862 0,-5.94717 0.610584,-11.1374 1.83175,-15.5711 1.22147,-4.43366 2.25687,-7.57991 3.10651,-9.43816l0 2.23008c0,3.45124 0.0794843,6.5975 0.238754,9.43816 0.15927,2.84096 0.42482,5.57534 0.79665,8.20374 0.371529,2.6284 0.756606,5.0045 1.15463,7.1286 0.398325,2.1238 0.862886,4.11512 1.39399,5.97337 0.5311,1.85855 0.982414,3.29228 1.35394,4.30088 0.37183,1.00891 0.769854,2.04431 1.19467,3.10651l1.593 3.10621zm2.23008 -31.6998c-0.955618,-0.955919 -2.1238,-1.43373 -3.50454,-1.43373 -2.01752,0 -3.76978,0.597337 -5.2565,1.79201 -1.48672,1.19497 -2.50887,2.04431 -3.06647,2.54892 -0.557594,0.504304 -1.12844,1.07515 -1.71253,1.71222l10.4338 -14.3364c2.81417,0.371529 4.92502,1.18143 6.33195,2.42909 1.40723,1.24796 2.45588,2.3764 3.14625,3.38501 0.690068,1.00891 1.35394,2.40289 1.99102,4.18166 0.63738,1.77876 0.955919,3.65056 0.955919,5.61508 0,1.54001 -0.15927,2.70819 -0.47811,3.50454 -0.955618,3.02673 -2.25657,5.36278 -3.90256,7.00907 -1.48672,1.64599 -3.186,2.80092 -5.09753,3.46449 -1.91154,0.663875 -3.76978,0.995661 -5.57534,0.995661l-2.86716 -0.239055 -1.593 -0.318539c4.61942,0 8.01768,-1.16818 10.1948,-3.50454 2.1241,-2.07081 3.186,-4.64592 3.186,-7.72563 0,-1.85855 -0.318539,-3.62406 -0.955919,-5.29655 -0.637079,-1.67278 -1.38044,-2.93369 -2.23008,-3.78333z"/>
  <path id="1234567891011" class="fil0" d="M386.675 18.3985c-1.43373,-2.6549 -3.23899,-4.38067 -5.41607,-5.17702 -1.91154,-0.849639 -3.6903,-1.27446 -5.33629,-1.27446l5.57534 -8.12396c4.35387,2.1241 7.46008,4.64622 9.31863,7.53987 1.85855,2.9072 2.78767,5.7879 2.78767,8.66831l-0.239055 2.6284c-0.584089,3.4118 -1.71222,6.19917 -3.38501,8.38951 -1.67248,2.17709 -3.27873,3.77009 -4.81844,4.77899 -1.54001,1.02216 -2.76118,1.71253 -3.66381,2.08405 4.35387,-5.52205 6.53096,-10.301 6.53096,-14.3364 0,-1.80556 -0.451314,-3.53133 -1.35394,-5.17732zm-11.31 7.00907c1.53971,1.80526 3.34527,2.98668 5.41607,3.54428 2.07081,0.557594 3.6903,0.836392 4.85848,0.836392l-5.57534 8.12396c-4.35417,-0.902629 -7.46038,-2.92045 -9.31893,-6.02666 -1.85825,-3.11946 -2.78767,-6.47797 -2.78767,-10.102l0.239055 -2.72113c0.5311,-3.29228 1.67248,-6.0664 3.42475,-8.29678 1.75227,-2.23008 3.4118,-3.88931 4.97801,-4.95121 1.5665,-1.0622 2.72143,-1.72577 3.46479,-1.99132 -4.77899,5.04424 -7.16834,9.90272 -7.16834,14.5754 0,2.81417 0.823144,5.15052 2.46913,7.00907z"/>
  <path id="123456789101112" class="fil0" d="M417.309 36.5583c-2.23008,1.16818 -4.56643,1.75227 -7.00907,1.75227l-2.6284 -0.15927 -1.19467 -0.239055 -0.477809 -0.15927c0.530799,0 1.16818,-0.0662369 1.91154,-0.199012 0.743359,-0.132775 1.8718,-0.332088 3.38501,-0.597337 1.51321,-0.26555 3.27873,-1.00891 5.29655,-2.23038 2.01782,-1.22117 3.02643,-2.86716 3.02643,-4.93796 0,-1.43373 -0.504304,-2.94694 -1.51321,-4.53994 -0.42482,-0.42482 -1.39369,-0.995661 -2.9072,-1.71253 -1.51321,-0.716864 -3.35821,-1.07515 -5.5353,-1.07515 -3.45155,0 -6.95608,1.11519 -10.5136,3.34527l12.0268 -9.79674c3.07972,0.37183 5.52235,1.14168 7.32761,2.30986 1.75227,1.27416 2.93369,2.70789 3.54428,4.30088 0.610584,1.593 0.915876,3.10621 0.915876,4.53994l-0.15927 1.91154 0 0.477809 0 0.15927 -0.0794843 0.15927 0 0.0797854 -0.0797854 0.15927 0 0.0797854c-1.22117,3.02643 -2.99993,5.15052 -5.33629,6.37169zm-7.80542 -34.0096c5.84059,1.80556 8.76104,4.80549 8.76104,9.00039 0,1.75227 -0.384776,3.37176 -1.15493,4.85848 -0.769854,1.48672 -1.36719,2.52212 -1.79201,3.10621l-1.51321 -0.398325 0.15927 -0.238754 0.0794843 -0.31884 0.398325 -1.19467c0.21256,-0.849639 0.318539,-1.75227 0.318539,-2.70789 0,-2.17709 -0.384776,-3.51778 -1.15463,-4.02239 -0.770155,-0.504304 -1.3142,-0.809596 -1.63304,-0.915876 -0.318539,-0.10628 -0.690068,-0.278797 -1.11489,-0.517551 -0.42482,-0.239055 -1.22117,-0.358583 -2.38935,-0.358583 -2.38965,0 -4.88527,1.0619 -7.48688,3.186l-0.0797854 -1.43373 8.60207 -8.04447zm-8.68155 37.1956c-1.85855,-6.21272 -2.78767,-12.0533 -2.78767,-17.5227 0,-5.73461 0.730112,-10.2746 2.19003,-13.6195 1.46022,-3.34527 2.61515,-5.52235 3.46479,-6.53126 -0.26555,0.902629 -0.597337,2.29661 -0.995661,4.18166 -0.398024,1.88474 -0.597337,4.26114 -0.597337,7.1283 0,3.39826 0.464562,6.90279 1.39399,10.5136 0.929123,3.61051 2.48238,7.14154 4.65917,10.5931l-7.32731 5.2568z"/>
  <path id="12345678910111213" class="fil0" d="M426.518 22.6997c0.637079,-7.32761 2.81417,-12.1463 6.53096,-14.4562 3.7171,-2.30986 7.19484,-3.46449 10.4338,-3.46449 -0.690068,0.0529895 -1.80526,0.464562 -3.34496,1.23442 -1.54001,0.769854 -3.07972,2.24332 -4.61972,4.42041 -1.53971,2.17709 -2.30956,5.15052 -2.30956,8.92061 0,1.00891 0.0264948,1.80526 0.0794843,2.38935 0.0529895,0.584089 0.21256,1.5665 0.477809,2.94694 0.31884,0.955919 0.955919,2.20358 1.91154,3.74359 0.955919,1.53971 2.20358,2.30956 3.74359,2.30956 1.16818,0 2.33636,-0.584089 3.50454,-1.75227l0.318539 1.0354 -7.8852 7.80572c-3.45124,-1.96483 -5.8141,-4.1949 -7.08855,-6.69053 -1.27446,-2.49563 -1.91154,-4.7522 -1.91154,-6.77002l0.0794843 -1.11519 0.0797854 -0.557293zm18.9561 -21.266c0,2.23008 0.318539,5.54885 0.955919,9.95601 0.637079,4.40716 1.32745,8.20344 2.07081,11.3894 0.743359,3.186 1.72547,6.82331 2.94694,10.9116l-7.80542 3.34527c-1.11519,-3.50454 -1.67278,-7.69914 -1.67278,-12.5844 0,-2.28307 0.10628,-4.57968 0.318539,-6.88924 0.21256,-2.30986 0.650627,-5.09753 1.3142,-8.36301 0.663875,-3.26578 1.28771,-5.85414 1.8718,-7.76568z"/>
 </g>
</svg>
